<?xml version="1.0" standalone="no"?>
<!DOCTYPE svg PUBLIC "-//W3C//DTD SVG 20010904//EN"
 "http://www.w3.org/TR/2001/REC-SVG-20010904/DTD/svg10.dtd">
<svg version="1.0" xmlns="http://www.w3.org/2000/svg"
 width="225.000000pt" height="225.000000pt" viewBox="0 0 225.000000 225.000000"
 preserveAspectRatio="xMidYMid meet">
<metadata>
Created by potrace 1.11, written by Peter Selinger 2001-2013
</metadata>
<g transform="translate(0.000000,225.000000) scale(0.100000,-0.100000)"
fill="#000000" stroke="none">
<path d="M766 2038 c-23 -32 -23 -293 -1 -325 15 -21 18 -22 360 -22 342 0
345 1 360 22 22 32 22 293 -1 325 l-15 22 -344 0 -344 0 -15 -22z m562 -85
c15 -16 17 -19 4 -8 -21 18 -43 21 -205 25 l-182 6 177 2 178 2 28 -27z m-310
-45 c7 -7 12 -21 12 -33 0 -12 -5 -26 -12 -33 -28 -28 -78 -7 -78 33 0 12 5
26 12 33 7 7 21 12 33 12 12 0 26 -5 33 -12z m280 0 c7 -7 12 -21 12 -33 0
-12 -5 -26 -12 -33 -28 -28 -78 -7 -78 33 0 12 5 26 12 33 7 7 21 12 33 12 12
0 26 -5 33 -12z m-411 -20 c-3 -8 -6 -5 -6 6 -1 11 2 17 5 13 3 -3 4 -12 1
-19z m480 0 c-3 -8 -6 -5 -6 6 -1 11 2 17 5 13 3 -3 4 -12 1 -19z m-480 -40
c-3 -8 -6 -5 -6 6 -1 11 2 17 5 13 3 -3 4 -12 1 -19z m480 0 c-3 -8 -6 -5 -6
6 -1 11 2 17 5 13 3 -3 4 -12 1 -19z m-447 -43 c13 -14 21 -25 18 -25 -2 0
-15 11 -28 25 -13 14 -21 25 -18 25 2 0 15 -11 28 -25z m440 22 c0 -2 -12 -14
-27 -28 l-28 -24 24 28 c23 25 31 32 31 24z m-148 -54 c-51 -2 -132 -2 -180 0
-48 1 -6 3 93 3 99 0 138 -2 87 -3z"/>
<path d="M1080 1656 c0 -20 -6 -36 -14 -39 -8 -3 -20 -22 -27 -41 l-13 -36
-141 0 c-159 0 -193 -11 -215 -72 l-12 -34 -34 34 c-31 31 -39 34 -72 29 -68
-11 -100 -76 -68 -139 13 -24 9 -44 -40 -225 -37 -137 -59 -201 -71 -208 -10
-5 -32 -24 -50 -41 -55 -53 -42 -142 19 -126 10 2 21 16 24 31 8 34 32 61 54
61 20 0 47 -28 51 -54 2 -10 13 -25 24 -32 18 -12 24 -11 43 2 12 8 22 24 22
35 0 29 -29 81 -58 105 l-26 21 50 184 c45 168 52 187 83 214 18 17 37 39 41
50 7 19 8 18 14 -5 3 -14 19 -169 36 -344 17 -176 36 -331 43 -345 7 -13 24
-33 39 -44 26 -20 42 -21 343 -21 301 0 317 1 343 21 15 11 32 31 39 44 6 13
26 168 43 344 17 176 33 331 37 345 5 23 6 24 13 5 4 -11 23 -33 41 -50 31
-27 38 -46 83 -213 l49 -182 -36 -35 c-48 -47 -60 -101 -27 -127 20 -16 25
-17 44 -5 12 8 23 23 25 33 4 26 31 54 51 54 22 0 46 -27 54 -61 6 -29 34 -42
60 -27 11 6 16 22 16 49 0 33 -6 47 -33 73 -18 17 -40 36 -50 41 -12 7 -34 71
-71 208 -49 181 -53 201 -40 225 20 38 17 75 -6 105 -38 49 -122 44 -150 -9
l-13 -24 -18 39 c-27 62 -55 71 -216 71 l-139 0 -13 36 c-7 19 -19 38 -27 41
-8 3 -14 19 -14 39 0 34 -1 34 -45 34 -44 0 -45 0 -45 -34z m-517 -353 c-7 -2
-19 -2 -25 0 -7 3 -2 5 12 5 14 0 19 -2 13 -5z m1144 1 c-3 -3 -12 -4 -19 -1
-8 3 -5 6 6 6 11 1 17 -2 13 -5z"/>
<path d="M940 429 l0 -181 29 -29 c29 -29 29 -29 156 -29 127 0 127 0 156 29
l29 29 0 181 0 181 -185 0 -185 0 0 -181z"/>
</g>
</svg>
